<svg width="22" height="18" viewBox="0 0 22 18" fill="none" xmlns="http://www.w3.org/2000/svg">
<path d="M0.00133589 17.8182V0.321395C-0.001838 0.297011 0.000661635 0.272229 0.00864273 0.248956C0.0166238 0.225682 0.0298735 0.20454 0.0473715 0.187154C0.0648695 0.169768 0.0861496 0.156604 0.109573 0.148674C0.132997 0.140744 0.157939 0.13826 0.18248 0.141413C1.49416 0.107667 3.04198 0 5.06045 0C7.44121 0 9.18796 0.493342 10.3007 1.55555C10.8413 2.0581 11.2693 2.66811 11.5569 3.3459C11.8445 4.02368 11.9852 4.75404 11.9698 5.48943C11.9698 7.42744 11.2798 8.86729 9.8996 9.80898C8.51945 10.7507 6.78348 11.222 4.69169 11.2231L3.23606 11.2488V17.7924C3.24013 17.8204 3.23758 17.8489 3.22861 17.8757C3.21964 17.9025 3.20451 17.9268 3.18441 17.9468C3.16432 17.9668 3.13981 17.9818 3.11283 17.9907C3.08586 17.9996 3.05717 18.0022 3.02904 17.9981H0.208358C0.0708823 17.9981 0.00133589 17.9387 0.00133589 17.8182ZM3.23606 2.5101V8.83837C3.23606 8.83837 3.97358 8.80944 4.85343 8.80944C6.01038 8.80944 6.9463 8.55661 7.66117 8.05095C8.37605 7.54529 8.73402 6.71716 8.7351 5.56657C8.7351 4.55524 8.42026 3.77532 7.79056 3.22681C7.16087 2.67829 6.25083 2.40618 5.06045 2.41046C4.76771 2.41046 4.4782 2.41046 4.19354 2.42332C3.90889 2.43618 3.67599 2.43618 3.49484 2.43618C3.3137 2.43618 3.21666 2.42975 3.23606 2.5101ZM14.3959 5.14232H17.1454C17.2116 5.14011 17.2767 5.15994 17.3303 5.19865C17.384 5.23737 17.423 5.29277 17.4414 5.35605C17.6474 5.79375 17.7665 6.26679 17.7923 6.7493C18.8307 5.41551 20.1084 4.82093 21.8099 4.82093C21.8355 4.81638 21.8619 4.81806 21.8867 4.82583C21.9116 4.83359 21.9342 4.8472 21.9526 4.8655C21.971 4.8838 21.9847 4.90626 21.9926 4.93095C22.0004 4.95565 22.0021 4.98185 21.9975 5.00734V7.84526C21.9975 7.98828 21.9263 8.04934 21.7824 8.03167C20.2249 7.94328 18.9892 8.14576 18.0948 9.03442C18.0048 9.10933 17.9314 9.20201 17.8793 9.30657C17.8273 9.41114 17.7977 9.52531 17.7923 9.64186V17.8117C17.7923 17.9355 17.7212 17.9981 17.5772 17.9981H14.7986C14.6369 17.9981 14.5576 17.9274 14.5576 17.7844V8.67767C14.5576 6.52111 14.3959 6.21418 14.2341 5.32873C14.2163 5.205 14.2697 5.14232 14.3959 5.14232Z" fill="#F0ECE7"/>
</svg>
