<svg width="40" height="40" viewBox="0 0 40 40" fill="none" xmlns="http://www.w3.org/2000/svg">
<path d="M0 3.33333V36.6667C0 38.5083 1.49167 40 3.33333 40H36.6667C38.5083 40 40 38.5083 40 36.6667V3.33333C40 1.49167 38.5083 0 36.6667 0H3.33333C1.49167 0 0 1.49167 0 3.33333ZM21.015 27.2433H18.265C18.1283 27.2433 18.0483 27.1933 18.02 27.0833L16.645 22.08H11.3117L11.3067 22.0833L9.98667 27.06C9.95833 27.1983 9.90333 27.2483 9.74 27.2483H7.29333C7.12667 27.2483 7.1 27.19 7.12667 26.9983L11.86 10.4433C11.9433 10.1433 11.9967 9.90167 12.0233 9.07667C12.0233 8.96667 12.0783 8.91 12.1617 8.91H15.655C15.765 8.91 15.8217 8.94 15.8483 9.07667L21.1533 27.0267C21.18 27.1633 21.1533 27.2433 21.015 27.2433ZM32.2567 20.7667C32.2283 20.9033 32.1733 20.95 32.0367 20.9783C31.7067 21.0333 30.7167 21.0883 29.2583 21.0883H24.9167C24.9467 23.34 26.0183 24.85 28.5467 24.85C29.5367 24.85 30.385 24.72 31.2633 24.3333C31.375 24.28 31.4583 24.3083 31.4583 24.445V26.535C31.4583 26.7017 31.4033 26.785 31.2917 26.8683C30.4133 27.3083 29.3183 27.5017 27.9417 27.5017C23.5417 27.5017 21.8917 24.2567 21.8917 20.6267C21.8917 16.6933 23.9283 13.4767 27.5033 13.4767C31.1333 13.4767 32.3983 16.5317 32.3983 19.005C32.3983 19.805 32.34 20.465 32.2567 20.7667Z" fill="black"/>
</svg>
