<svg width="40" height="40" viewBox="0 0 40 40" fill="none" xmlns="http://www.w3.org/2000/svg">
<path d="M36.6667 0H3.33333C1.49333 0 0 1.49167 0 3.33333V36.6667C0 38.5083 1.49333 40 3.33333 40H36.6667C38.5067 40 40 38.5083 40 36.6667V3.33333C40 1.49167 38.5067 0 36.6667 0ZM14.625 27.03C14.625 27.1967 14.5967 27.25 14.405 27.25H11.845C11.6783 27.25 11.625 27.1667 11.625 27.03V9.13667C11.625 8.97 11.7083 8.91667 11.845 8.91667H14.4333C14.57 8.91667 14.625 8.97167 14.625 9.11V27.03ZM28.2717 26.515C26.8417 27.2033 25.3283 27.5067 23.8983 27.5067C20.21 27.5067 17.57 25.2233 17.57 20.5767H17.575C17.575 16.5883 20.205 13.4817 24.4117 13.4817C24.7683 13.4817 24.9617 13.4817 25.2917 13.5067V9.08333C25.2917 8.97333 25.375 8.91667 25.4583 8.91667H28.1667C28.3067 8.91667 28.3333 8.97333 28.3333 9.05667V24.6483C28.3333 25.115 28.3333 25.69 28.4167 26.3217C28.4167 26.4317 28.3833 26.46 28.2717 26.515Z" fill="black"/>
</svg>
