<svg width="40" height="40" viewBox="0 0 40 40" fill="none" xmlns="http://www.w3.org/2000/svg">
<path d="M36.6667 0H3.33333C1.49333 0 0 1.49167 0 3.33333V36.6667C0 38.5083 1.49333 40 3.33333 40H36.6667C38.5067 40 40 38.5083 40 36.6667V3.33333C40 1.49167 38.5067 0 36.6667 0ZM23.5867 27.25H20.8367C20.6983 27.25 20.6167 27.2167 20.59 27.1067L19.215 22.0817H13.87L13.875 22.0833L12.555 27.08C12.5267 27.2183 12.4717 27.25 12.3083 27.25H9.86167C9.695 27.25 9.67 27.195 9.695 27.0033L14.4283 10.4283C14.5117 10.1283 14.565 9.865 14.5917 9.04C14.5917 8.93 14.6467 8.87333 14.73 8.87333H18.2233C18.3333 8.87333 18.39 8.90333 18.4167 9.04L23.725 27.03C23.7533 27.1683 23.725 27.25 23.5867 27.25ZM29.2183 27.07C29.2183 27.2083 29.1917 27.2633 29.0267 27.2633H26.4433C26.2767 27.2633 26.2217 27.18 26.2217 27.0467V13.9L26.2083 13.9017C26.2083 13.7683 26.2633 13.7183 26.4017 13.7183H29.0183C29.165 13.7183 29.2183 13.7733 29.2183 13.9117V27.07ZM27.6983 11.8167C26.6983 11.8167 26.015 11.2117 26.015 10.1117H26.0217C26.0217 9.04 26.7633 8.40667 27.7267 8.40667C28.7433 8.40667 29.4317 9.09333 29.4317 10.1117C29.4317 11.2117 28.715 11.8167 27.6983 11.8167Z" fill="black"/>
</svg>
