<svg width="28" height="40" viewBox="0 0 28 40" fill="none" xmlns="http://www.w3.org/2000/svg">
<path d="M0.666626 33.3367C0.666626 37.0233 3.65163 40 7.33163 40C11.0116 40 13.995 37.015 13.995 33.3367V13.335H20.6666L20.6683 13.3367C24.35 13.3367 27.3333 10.35 27.3333 6.67167C27.3333 2.99333 24.3483 0 20.6683 0H7.33163C3.64996 0 0.666626 2.985 0.666626 6.66333C0.666626 10.3417 3.65163 13.3267 7.33163 13.3267C3.64996 13.3367 0.666626 16.32 0.666626 20C0.666626 23.68 3.65163 26.6633 7.33163 26.6633C3.64996 26.6633 0.666626 29.6483 0.666626 33.3367Z" fill="black"/>
</svg>
