<svg width="29" height="8" viewBox="0 0 29 8" fill="none" xmlns="http://www.w3.org/2000/svg">
<path d="M14.3333 7.99539C10.2513 7.99539 6.16933 7.54472 2.116 6.64272C1.756 6.56272 1.47 6.29139 1.37 5.93672C0.976001 4.53272 0.649334 3.08806 0.400668 1.64272C0.306668 1.09872 0.672001 0.58139 1.21667 0.488056C1.76 0.39339 2.278 0.759391 2.37133 1.30406C2.57467 2.48406 2.832 3.66339 3.13733 4.81806C10.5693 6.38739 18.0953 6.38739 25.5273 4.81806C25.8327 3.66339 26.09 2.48406 26.2933 1.30406C26.3867 0.760058 26.9047 0.394723 27.448 0.488056C27.992 0.58139 28.3573 1.09872 28.264 1.64272C28.0153 3.08806 27.6893 4.53272 27.2947 5.93672C27.1953 6.29139 26.9087 6.56206 26.5487 6.64272C22.4973 7.54472 18.4153 7.99539 14.3333 7.99539Z" fill="#141414"/>
</svg>
