<svg width="29" height="8" viewBox="0 0 29 8" fill="none" xmlns="http://www.w3.org/2000/svg">
<path d="M27.2787 7.52672C26.8007 7.52672 26.378 7.18338 26.2947 6.69605C26.0913 5.51605 25.834 4.33672 25.5287 3.18205C18.0967 1.61272 10.5707 1.61272 3.13867 3.18205C2.83334 4.33672 2.576 5.51605 2.37267 6.69605C2.27934 7.24072 1.76267 7.60872 1.218 7.51205C0.674005 7.41872 0.308672 6.90138 0.402005 6.35738C0.650672 4.91205 0.976672 3.46738 1.37134 2.06338C1.47067 1.70872 1.75734 1.43805 2.11734 1.35738C10.224 -0.44595 18.4447 -0.44595 26.5513 1.35738C26.9113 1.43738 27.1973 1.70872 27.2973 2.06338C27.6913 3.46738 28.018 4.91205 28.2667 6.35738C28.3607 6.90138 27.9953 7.41872 27.4507 7.51205C27.392 7.52205 27.3347 7.52672 27.2787 7.52672Z" fill="#141414"/>
</svg>
