<svg width="40" height="40" viewBox="0 0 40 40" fill="none" xmlns="http://www.w3.org/2000/svg">
<path d="M36.6667 0H3.33333C1.49333 0 0 1.49167 0 3.33333V36.6667C0 38.5083 1.49333 40 3.33333 40H36.6667C38.5067 40 40 38.5083 40 36.6667V3.33333C40 1.49167 38.5067 0 36.6667 0ZM13.9167 20.6833C13.2833 20.6833 13.0667 20.655 12.625 20.655V27.0583C12.625 27.1967 12.57 27.2517 12.4333 27.2517H9.86C9.72167 27.2517 9.66833 27.2017 9.66833 27.0633V9.13333C9.66833 9.02167 9.9 8.94 10.04 8.94C11.1133 8.885 12.6867 8.85667 14.3367 8.85667C18.9567 8.85667 20.7533 11.39 20.7533 14.6333C20.7533 18.8667 17.6833 20.6833 13.9167 20.6833ZM25.925 27.5033C24.465 27.5033 23.225 27.1983 22.5083 26.7867C22.4 26.7317 22.375 26.65 22.375 26.5117V24.0667C22.375 23.9 22.455 23.845 22.565 23.9267C23.605 24.615 24.8183 24.9167 25.9183 24.9167C27.2383 24.9167 27.7883 24.3667 27.7883 23.6233C27.7883 23.0183 27.405 22.495 25.7267 21.615C23.36 20.4817 22.37 19.3317 22.37 17.4033C22.37 15.2583 24.0467 13.47 26.9617 13.47C28.395 13.47 29.4017 13.69 29.9517 13.9367C30.0883 14.02 30.1183 14.1567 30.1183 14.2667V16.55C30.1183 16.6883 30.035 16.7717 29.8683 16.7167C29.1283 16.2767 28.035 16 26.9633 16L26.97 16.0067C25.65 16.0067 25.21 16.6667 25.21 17.2167C25.21 17.8217 25.51 18.2333 27.2717 19.1417C29.885 20.4083 30.7083 21.6167 30.7083 23.4033C30.7083 26.07 28.675 27.5033 25.925 27.5033Z" fill="black"/>
</svg>
