<svg width="36" height="20" viewBox="0 0 36 20" fill="none" xmlns="http://www.w3.org/2000/svg">
<path d="M1.38756 18.4734C1.02089 18.4734 0.66756 18.2708 0.492226 17.9201C0.24556 17.4261 0.44556 16.8254 0.93956 16.5781L33.8862 0.104775C34.3802 -0.141891 34.9802 0.0581088 35.2282 0.552109C35.4749 1.04611 35.2749 1.64678 34.7809 1.89411L1.83423 18.3674C1.69089 18.4394 1.53823 18.4734 1.38756 18.4734ZM20.6036 3.89344C20.5829 3.89344 20.5622 3.89211 20.5409 3.88944C16.4029 3.37078 12.2649 3.37078 8.12689 3.88944C7.85223 3.92411 7.60289 3.72944 7.56889 3.45544C7.53489 3.18144 7.72889 2.93144 8.00289 2.89744C12.2229 2.36811 16.4456 2.36811 20.6656 2.89744C20.9396 2.93144 21.1342 3.18144 21.0996 3.45544C21.0676 3.70811 20.8516 3.89344 20.6036 3.89344ZM14.3336 19.5014C12.2422 19.5014 10.1122 19.3674 8.00223 19.1028C7.72823 19.0688 7.53356 18.8188 7.56823 18.5448C7.60289 18.2708 7.85223 18.0781 8.12623 18.1108C12.2642 18.6294 16.4022 18.6294 20.5402 18.1108C20.8156 18.0781 21.0642 18.2708 21.0982 18.5448C21.1329 18.8188 20.9382 19.0688 20.6642 19.1028C18.5549 19.3674 16.4249 19.5014 14.3336 19.5014Z" fill="#141414"/>
</svg>
